<svg width="28" height="28" viewBox="0 0 28 28" fill="none" xmlns="http://www.w3.org/2000/svg">
<path d="M24.5 1.75C24.9641 1.75 25.4092 1.93437 25.7374 2.26256C26.0656 2.59075 26.25 3.03587 26.25 3.5V24.5C26.25 24.9641 26.0656 25.4092 25.7374 25.7374C25.4092 26.0656 24.9641 26.25 24.5 26.25H3.5C3.03587 26.25 2.59075 26.0656 2.26256 25.7374C1.93437 25.4092 1.75 24.9641 1.75 24.5V3.5C1.75 3.03587 1.93437 2.59075 2.26256 2.26256C2.59075 1.93437 3.03587 1.75 3.5 1.75H24.5ZM3.5 0C2.57174 0 1.6815 0.368749 1.02513 1.02513C0.368749 1.6815 0 2.57174 0 3.5L0 24.5C0 25.4283 0.368749 26.3185 1.02513 26.9749C1.6815 27.6313 2.57174 28 3.5 28H24.5C25.4283 28 26.3185 27.6313 26.9749 26.9749C27.6313 26.3185 28 25.4283 28 24.5V3.5C28 2.57174 27.6313 1.6815 26.9749 1.02513C26.3185 0.368749 25.4283 0 24.5 0L3.5 0Z" fill="#FE9E68"/>
<path d="M15.6274 11.529L11.6199 12.0312L11.4764 12.6963L12.2639 12.8415C12.7784 12.964 12.8799 13.1495 12.7679 13.6623L11.4764 19.7312C11.1369 21.301 11.6602 22.0395 12.8904 22.0395C13.8442 22.0395 14.9519 21.5985 15.4542 20.993L15.6082 20.265C15.2582 20.573 14.7472 20.6955 14.4077 20.6955C13.9264 20.6955 13.7514 20.3578 13.8757 19.7628L15.6274 11.529ZM15.7499 7.875C15.7499 8.33913 15.5655 8.78425 15.2374 9.11244C14.9092 9.44063 14.464 9.625 13.9999 9.625C13.5358 9.625 13.0907 9.44063 12.7625 9.11244C12.4343 8.78425 12.2499 8.33913 12.2499 7.875C12.2499 7.41087 12.4343 6.96575 12.7625 6.63756C13.0907 6.30937 13.5358 6.125 13.9999 6.125C14.464 6.125 14.9092 6.30937 15.2374 6.63756C15.5655 6.96575 15.7499 7.41087 15.7499 7.875Z" fill="#FE9E68"/>
</svg>
