<svg width="31" height="31" viewBox="0 0 31 31" fill="none" xmlns="http://www.w3.org/2000/svg">
<path d="M1.29959 1.30032C1.83674 0.763332 2.56517 0.46167 3.3247 0.46167C4.08423 0.46167 4.81266 0.763332 5.34981 1.30032L15.4782 11.4287L25.6067 1.30032C26.1469 0.778551 26.8704 0.489838 27.6215 0.496364C28.3725 0.502891 29.0909 0.804134 29.622 1.33521C30.1531 1.86629 30.4543 2.58471 30.4608 3.33574C30.4674 4.08677 30.1786 4.81032 29.6569 5.35054L19.5285 15.479L29.6569 25.6074C30.1786 26.1476 30.4674 26.8712 30.4608 27.6222C30.4543 28.3732 30.1531 29.0916 29.622 29.6227C29.0909 30.1538 28.3725 30.455 27.6215 30.4616C26.8704 30.4681 26.1469 30.1794 25.6067 29.6576L15.4782 19.5292L5.34981 29.6576C4.80958 30.1794 4.08604 30.4681 3.33501 30.4616C2.58398 30.455 1.86556 30.1538 1.33448 29.6227C0.803401 29.0916 0.502158 28.3732 0.495632 27.6222C0.489106 26.8712 0.777818 26.1476 1.29959 25.6074L11.428 15.479L1.29959 5.35054C0.7626 4.81339 0.460938 4.08496 0.460938 3.32543C0.460938 2.5659 0.7626 1.83747 1.29959 1.30032V1.30032Z" fill="white"/>
</svg>
