<svg width="30" height="20" viewBox="0 0 30 20" fill="none" xmlns="http://www.w3.org/2000/svg">
<path d="M28.4167 8.33325H1.58333C0.708883 8.33325 0 9.04213 0 9.91658V10.0832C0 10.9577 0.708883 11.6666 1.58333 11.6666H28.4167C29.2911 11.6666 30 10.9577 30 10.0832V9.91658C30 9.04213 29.2911 8.33325 28.4167 8.33325Z" fill="black"/>
<path d="M28.4167 16.6667H1.58333C0.708883 16.6667 0 17.3756 0 18.2501V18.4167C0 19.2912 0.708883 20.0001 1.58333 20.0001H28.4167C29.2911 20.0001 30 19.2912 30 18.4167V18.2501C30 17.3756 29.2911 16.6667 28.4167 16.6667Z" fill="black"/>
<path d="M28.4167 0H1.58333C0.708883 0 0 0.708879 0 1.58333V1.74999C0 2.62444 0.708883 3.33332 1.58333 3.33332H28.4167C29.2911 3.33332 30 2.62444 30 1.74999V1.58333C30 0.708879 29.2911 0 28.4167 0Z" fill="black"/>
</svg>
