<svg width="43" height="57" viewBox="0 0 43 57" fill="none" xmlns="http://www.w3.org/2000/svg">
<path d="M36.375 23.8958L38.5 15.3958C38.8542 14.3333 40.2708 9.37499 37.4375 5.12499C35.3125 1.93749 31.0625 0.166656 25.0417 0.166656L17.9583 0.166656C11.9375 0.166656 7.6875 1.93749 5.5625 5.12499C2.72917 9.37499 4.14583 13.9792 4.5 15.3958L6.625 23.8958C2.72917 27.7917 0.25 33.1042 0.25 39.125C0.25 46.5625 4.14583 52.9375 9.8125 56.8333L33.1875 56.8333C38.8542 52.9375 42.75 46.5625 42.75 39.125C42.75 33.1042 40.2708 27.7917 36.375 23.8958ZM13 19.6458L11.2292 13.625V13.2708C11.2292 13.2708 10.5208 10.7917 11.5833 9.37499C12.2917 7.95832 14.4167 7.24999 17.9583 7.24999L25.0417 7.24999C28.2292 7.24999 30.7083 7.95832 31.7708 9.02082C32.8333 10.4375 32.125 12.9167 32.125 12.9167L30.3542 19.6458C27.5208 18.5833 24.6875 17.875 21.5 17.875C18.3125 17.875 15.4792 18.5833 13 19.6458Z" fill="white"/>
</svg>
