<svg width="849" height="1132" viewBox="0 0 849 1132" fill="none" xmlns="http://www.w3.org/2000/svg">
<path d="M721.475 474.393L763.9 304.693C770.971 283.48 799.254 184.489 742.688 99.6386C700.263 36.0011 615.413 0.646973 495.208 0.646973H353.792C233.588 0.646973 148.738 36.0011 106.312 99.6386C49.7458 184.489 78.0292 276.409 85.1 304.693L127.525 474.393C49.7458 552.172 0.25 658.234 0.25 778.439C0.25 926.926 78.0292 1054.2 191.162 1131.98H657.838C770.971 1054.2 848.75 926.926 848.75 778.439C848.75 658.234 799.254 552.172 721.475 474.393ZM254.8 389.543L219.446 269.339V262.268C219.446 262.268 205.304 212.772 226.517 184.489C240.658 156.205 283.083 142.064 353.792 142.064H495.208C558.846 142.064 608.342 156.205 629.554 177.418C650.767 205.701 636.625 255.197 636.625 255.197L601.271 389.543C544.704 368.33 488.138 354.189 424.5 354.189C360.863 354.189 304.296 368.33 254.8 389.543Z" fill="#19232C"/>
</svg>
